<svg width="140" height="41" viewBox="0 0 140 41" fill="none" xmlns="http://www.w3.org/2000/svg">
<path fill-rule="evenodd" clip-rule="evenodd" d="M0 12.982V13.0825L23.668 23.8662L47.4193 13.0458V13.0186L23.668 2.19862L0 12.982ZM8.53271 13.0325L23.6685 6.13649L38.8057 13.0325L23.668 19.9279L8.53271 13.0325ZM23.668 28.0546L0 17.4323V21.3612L23.668 32.0078L47.4193 21.325V17.3957L23.668 28.0546ZM23.668 36.0228L0 25.3996V29.3284L23.668 39.9764L47.4193 29.2922V25.3634L23.668 36.0228Z" fill="white"/>
<path fill-rule="evenodd" clip-rule="evenodd" d="M134.604 20.6987C134.604 19.7876 134.442 18.9381 134.117 18.1502C133.792 17.3623 133.348 16.6728 132.786 16.0819C132.224 15.4909 131.569 15.0292 130.819 14.6968C130.07 14.3644 129.27 14.1982 128.421 14.1982C127.571 14.1982 126.772 14.3644 126.022 14.6968C125.273 15.0292 124.617 15.4909 124.055 16.0819C123.493 16.6728 123.049 17.3623 122.725 18.1502C122.4 18.9381 122.238 19.7876 122.238 20.6987C122.238 21.6097 122.4 22.4592 122.725 23.2471C123.049 24.0351 123.493 24.7246 124.055 25.3155C124.617 25.9064 125.273 26.3681 126.022 26.7005C126.772 27.033 127.571 27.1991 128.421 27.1991C129.27 27.1991 130.07 27.033 130.819 26.7005C131.569 26.3681 132.224 25.9064 132.786 25.3155C133.348 24.7246 133.792 24.0351 134.117 23.2471C134.442 22.4592 134.604 21.6097 134.604 20.6987ZM140 20.6987C140 22.2992 139.7 23.7827 139.101 25.1493C138.501 26.5158 137.677 27.6978 136.627 28.695C135.578 29.6922 134.348 30.4801 132.936 31.0588C131.525 31.6374 130.02 31.9268 128.421 31.9268C126.822 31.9268 125.323 31.6374 123.924 31.0588C122.525 30.4801 121.301 29.6861 120.251 28.6765C119.202 27.6669 118.378 26.4789 117.778 25.1124C117.179 23.7458 116.879 22.2745 116.879 20.6987C116.879 19.1475 117.185 17.6885 117.797 16.3219C118.409 14.9554 119.24 13.7611 120.289 12.7393C121.338 11.7174 122.562 10.9172 123.961 10.3385C125.36 9.75993 126.847 9.4706 128.421 9.4706C130.02 9.4706 131.525 9.75993 132.936 10.3385C134.348 10.9172 135.578 11.7051 136.627 12.7024C137.677 13.6996 138.501 14.8876 139.101 16.2665C139.7 17.6454 140 19.1228 140 20.6987ZM115.005 31.2619C114.58 31.4589 114.099 31.619 113.562 31.7421C113.025 31.8652 112.469 31.9267 111.895 31.9267C111.095 31.9267 110.327 31.8221 109.59 31.6128C108.853 31.4035 108.21 31.065 107.66 30.5971C107.11 30.1293 106.673 29.5198 106.348 28.7689C106.024 28.0179 105.861 27.113 105.861 26.0542V0.71714H111.37V25.1308C111.37 26.0172 111.551 26.6266 111.913 26.9591C112.276 27.2915 112.706 27.4577 113.206 27.4577C113.831 27.4577 114.43 27.273 115.005 26.9037V31.262V31.2619ZM103.426 9.98768L93.6824 35.3617C92.9579 37.2576 92.0085 38.6242 90.8344 39.4614C89.6602 40.2986 88.2612 40.7171 86.6373 40.7171C86.3875 40.7171 86.1127 40.6987 85.8129 40.6618C85.5131 40.6248 85.2258 40.5694 84.951 40.4956L83.1523 35.5464C83.577 35.7433 84.0142 35.8972 84.4638 36.008C84.9135 36.1188 85.3382 36.1742 85.7379 36.1742C86.5873 36.1742 87.3618 35.9834 88.0613 35.6017C88.7608 35.2201 89.298 34.5122 89.6727 33.478L90.4221 31.3358L82.0655 9.98768H87.9489L92.9329 23.7273L97.6171 9.98768H103.426ZM80.7539 6.77439H66.6637V13.6442H80.5665V18.2979H66.6637V31.3727H60.9677V1.86208H80.7539V6.77439Z" fill="white"/>
</svg>
